<mxfile host="app.diagrams.net" modified="2021-05-01T14:00:30.508Z" agent="5.0 (Windows NT 10.0; Win64; x64) AppleWebKit/537.36 (KHTML, like Gecko) Chrome/90.0.4430.93 Safari/537.36" etag="rxzyvBo3D5pcxPp9jyT5" version="14.6.9" type="github">
  <diagram id="C5RBs43oDa-KdzZeNtuy" name="Page-1">
    <mxGraphModel dx="1117" dy="637" grid="1" gridSize="10" guides="1" tooltips="1" connect="1" arrows="1" fold="1" page="1" pageScale="1" pageWidth="827" pageHeight="1169" math="0" shadow="0">
      <root>
        <mxCell id="WIyWlLk6GJQsqaUBKTNV-0" />
        <mxCell id="WIyWlLk6GJQsqaUBKTNV-1" parent="WIyWlLk6GJQsqaUBKTNV-0" />
        <mxCell id="y3CnCQTeACcQArs1ATYj-6" style="edgeStyle=orthogonalEdgeStyle;rounded=0;orthogonalLoop=1;jettySize=auto;html=1;exitX=0.5;exitY=1;exitDx=0;exitDy=0;entryX=0.5;entryY=0;entryDx=0;entryDy=0;" edge="1" parent="WIyWlLk6GJQsqaUBKTNV-1" source="WIyWlLk6GJQsqaUBKTNV-3" target="y3CnCQTeACcQArs1ATYj-3">
          <mxGeometry relative="1" as="geometry" />
        </mxCell>
        <mxCell id="WIyWlLk6GJQsqaUBKTNV-3" value="index.php&lt;br&gt;登入頁面" style="rounded=1;whiteSpace=wrap;html=1;fontSize=12;glass=0;strokeWidth=1;shadow=0;" parent="WIyWlLk6GJQsqaUBKTNV-1" vertex="1">
          <mxGeometry x="340" y="80" width="120" height="40" as="geometry" />
        </mxCell>
        <mxCell id="y3CnCQTeACcQArs1ATYj-11" style="edgeStyle=orthogonalEdgeStyle;rounded=0;orthogonalLoop=1;jettySize=auto;html=1;exitX=0.5;exitY=1;exitDx=0;exitDy=0;entryX=0.5;entryY=0;entryDx=0;entryDy=0;exitPerimeter=0;" edge="1" parent="WIyWlLk6GJQsqaUBKTNV-1" source="y3CnCQTeACcQArs1ATYj-2" target="y3CnCQTeACcQArs1ATYj-10">
          <mxGeometry relative="1" as="geometry">
            <Array as="points">
              <mxPoint x="400" y="400" />
              <mxPoint x="200" y="400" />
            </Array>
          </mxGeometry>
        </mxCell>
        <mxCell id="y3CnCQTeACcQArs1ATYj-13" style="edgeStyle=orthogonalEdgeStyle;rounded=0;orthogonalLoop=1;jettySize=auto;html=1;entryX=0.5;entryY=0;entryDx=0;entryDy=0;" edge="1" parent="WIyWlLk6GJQsqaUBKTNV-1">
          <mxGeometry relative="1" as="geometry">
            <mxPoint x="400" y="400" as="sourcePoint" />
            <mxPoint x="600" y="440" as="targetPoint" />
          </mxGeometry>
        </mxCell>
        <mxCell id="y3CnCQTeACcQArs1ATYj-16" style="edgeStyle=orthogonalEdgeStyle;rounded=0;orthogonalLoop=1;jettySize=auto;html=1;entryX=0.5;entryY=0;entryDx=0;entryDy=0;" edge="1" parent="WIyWlLk6GJQsqaUBKTNV-1" source="y3CnCQTeACcQArs1ATYj-2" target="y3CnCQTeACcQArs1ATYj-8">
          <mxGeometry relative="1" as="geometry" />
        </mxCell>
        <mxCell id="y3CnCQTeACcQArs1ATYj-7" style="edgeStyle=orthogonalEdgeStyle;rounded=0;orthogonalLoop=1;jettySize=auto;html=1;exitX=0.5;exitY=1;exitDx=0;exitDy=0;entryX=0.5;entryY=0;entryDx=0;entryDy=0;" edge="1" parent="WIyWlLk6GJQsqaUBKTNV-1" source="y3CnCQTeACcQArs1ATYj-3" target="y3CnCQTeACcQArs1ATYj-2">
          <mxGeometry relative="1" as="geometry" />
        </mxCell>
        <mxCell id="y3CnCQTeACcQArs1ATYj-38" style="edgeStyle=orthogonalEdgeStyle;rounded=0;orthogonalLoop=1;jettySize=auto;html=1;exitX=0;exitY=0.5;exitDx=0;exitDy=0;entryX=0;entryY=0.5;entryDx=0;entryDy=0;dashed=1;dashPattern=1 1;fontSize=10;fontColor=#00CC00;strokeColor=#FF3333;" edge="1" parent="WIyWlLk6GJQsqaUBKTNV-1" source="y3CnCQTeACcQArs1ATYj-3" target="WIyWlLk6GJQsqaUBKTNV-3">
          <mxGeometry relative="1" as="geometry" />
        </mxCell>
        <mxCell id="y3CnCQTeACcQArs1ATYj-3" value="&lt;span&gt;login.php&lt;/span&gt;&lt;br&gt;&lt;span&gt;登入&lt;/span&gt;" style="ellipse;whiteSpace=wrap;html=1;aspect=fixed;" vertex="1" parent="WIyWlLk6GJQsqaUBKTNV-1">
          <mxGeometry x="360" y="180" width="80" height="80" as="geometry" />
        </mxCell>
        <mxCell id="y3CnCQTeACcQArs1ATYj-21" style="edgeStyle=orthogonalEdgeStyle;rounded=0;orthogonalLoop=1;jettySize=auto;html=1;exitX=0.5;exitY=1;exitDx=0;exitDy=0;entryX=0.5;entryY=0;entryDx=0;entryDy=0;fontSize=10;" edge="1" parent="WIyWlLk6GJQsqaUBKTNV-1" source="y3CnCQTeACcQArs1ATYj-8" target="y3CnCQTeACcQArs1ATYj-18">
          <mxGeometry relative="1" as="geometry" />
        </mxCell>
        <mxCell id="y3CnCQTeACcQArs1ATYj-8" value="edit.php&lt;br&gt;編輯頁面" style="rounded=1;whiteSpace=wrap;html=1;fontSize=12;glass=0;strokeWidth=1;shadow=0;" vertex="1" parent="WIyWlLk6GJQsqaUBKTNV-1">
          <mxGeometry x="340" y="440" width="120" height="40" as="geometry" />
        </mxCell>
        <mxCell id="y3CnCQTeACcQArs1ATYj-19" style="edgeStyle=orthogonalEdgeStyle;rounded=0;orthogonalLoop=1;jettySize=auto;html=1;exitX=0.5;exitY=1;exitDx=0;exitDy=0;entryX=0.5;entryY=0;entryDx=0;entryDy=0;fontSize=10;" edge="1" parent="WIyWlLk6GJQsqaUBKTNV-1" source="y3CnCQTeACcQArs1ATYj-10" target="y3CnCQTeACcQArs1ATYj-17">
          <mxGeometry relative="1" as="geometry" />
        </mxCell>
        <mxCell id="y3CnCQTeACcQArs1ATYj-25" style="edgeStyle=orthogonalEdgeStyle;rounded=0;orthogonalLoop=1;jettySize=auto;html=1;exitX=0;exitY=0;exitDx=0;exitDy=0;entryX=0;entryY=0.5;entryDx=0;entryDy=0;fontSize=10;dashed=1;dashPattern=1 1;strokeColor=#FF3333;" edge="1" parent="WIyWlLk6GJQsqaUBKTNV-1" source="y3CnCQTeACcQArs1ATYj-17" target="y3CnCQTeACcQArs1ATYj-10">
          <mxGeometry relative="1" as="geometry">
            <Array as="points">
              <mxPoint x="130" y="565" />
              <mxPoint x="130" y="460" />
            </Array>
          </mxGeometry>
        </mxCell>
        <mxCell id="y3CnCQTeACcQArs1ATYj-28" style="edgeStyle=orthogonalEdgeStyle;rounded=0;orthogonalLoop=1;jettySize=auto;html=1;exitX=0;exitY=0.5;exitDx=0;exitDy=0;entryX=0;entryY=0.5;entryDx=0;entryDy=0;dashed=1;dashPattern=1 1;fontSize=10;fontColor=#00CC00;strokeColor=#00CC00;" edge="1" parent="WIyWlLk6GJQsqaUBKTNV-1" source="y3CnCQTeACcQArs1ATYj-17" target="y3CnCQTeACcQArs1ATYj-2">
          <mxGeometry relative="1" as="geometry">
            <Array as="points">
              <mxPoint x="90" y="600" />
              <mxPoint x="90" y="340" />
            </Array>
          </mxGeometry>
        </mxCell>
        <mxCell id="y3CnCQTeACcQArs1ATYj-17" value="&lt;font style=&quot;font-size: 10px&quot;&gt;&lt;span style=&quot;font-size: 10px&quot;&gt;insert.php&lt;/span&gt;&lt;br style=&quot;font-size: 10px&quot;&gt;執行新增&lt;br&gt;&lt;/font&gt;" style="ellipse;whiteSpace=wrap;html=1;aspect=fixed;fontSize=10;" vertex="1" parent="WIyWlLk6GJQsqaUBKTNV-1">
          <mxGeometry x="150" y="550" width="100" height="100" as="geometry" />
        </mxCell>
        <mxCell id="y3CnCQTeACcQArs1ATYj-30" style="edgeStyle=orthogonalEdgeStyle;rounded=0;orthogonalLoop=1;jettySize=auto;html=1;exitX=1;exitY=0.5;exitDx=0;exitDy=0;entryX=1;entryY=0.5;entryDx=0;entryDy=0;dashed=1;dashPattern=1 1;fontSize=10;fontColor=#00CC00;strokeColor=#00CC00;" edge="1" parent="WIyWlLk6GJQsqaUBKTNV-1" source="y3CnCQTeACcQArs1ATYj-18" target="y3CnCQTeACcQArs1ATYj-2">
          <mxGeometry relative="1" as="geometry">
            <Array as="points">
              <mxPoint x="490" y="600" />
              <mxPoint x="490" y="340" />
            </Array>
          </mxGeometry>
        </mxCell>
        <mxCell id="y3CnCQTeACcQArs1ATYj-18" value="&lt;font style=&quot;font-size: 10px&quot;&gt;updateEdit.php&lt;br&gt;執行內容更新&lt;br&gt;&lt;/font&gt;" style="ellipse;whiteSpace=wrap;html=1;aspect=fixed;fontSize=10;" vertex="1" parent="WIyWlLk6GJQsqaUBKTNV-1">
          <mxGeometry x="350" y="550" width="100" height="100" as="geometry" />
        </mxCell>
        <mxCell id="y3CnCQTeACcQArs1ATYj-34" style="edgeStyle=orthogonalEdgeStyle;rounded=0;orthogonalLoop=1;jettySize=auto;html=1;exitX=1;exitY=0.5;exitDx=0;exitDy=0;dashed=1;dashPattern=1 1;fontSize=10;fontColor=#00CC00;strokeColor=#FF3333;" edge="1" parent="WIyWlLk6GJQsqaUBKTNV-1" source="y3CnCQTeACcQArs1ATYj-23">
          <mxGeometry relative="1" as="geometry">
            <mxPoint x="460" y="350" as="targetPoint" />
            <Array as="points">
              <mxPoint x="670" y="490" />
              <mxPoint x="670" y="350" />
            </Array>
          </mxGeometry>
        </mxCell>
        <mxCell id="y3CnCQTeACcQArs1ATYj-23" value="&lt;font style=&quot;font-size: 10px&quot;&gt;&lt;span style=&quot;font-size: 10px&quot;&gt;delete.php&lt;/span&gt;&lt;br style=&quot;font-size: 10px&quot;&gt;執行刪除&lt;br&gt;&lt;/font&gt;" style="ellipse;whiteSpace=wrap;html=1;aspect=fixed;fontSize=10;" vertex="1" parent="WIyWlLk6GJQsqaUBKTNV-1">
          <mxGeometry x="550" y="440" width="100" height="100" as="geometry" />
        </mxCell>
        <mxCell id="y3CnCQTeACcQArs1ATYj-27" value="失敗" style="text;html=1;strokeColor=none;fillColor=none;align=center;verticalAlign=middle;whiteSpace=wrap;rounded=0;fontSize=10;fontColor=#FF3333;" vertex="1" parent="WIyWlLk6GJQsqaUBKTNV-1">
          <mxGeometry x="90" y="520" width="40" height="20" as="geometry" />
        </mxCell>
        <mxCell id="y3CnCQTeACcQArs1ATYj-29" value="成功" style="text;html=1;strokeColor=none;fillColor=none;align=center;verticalAlign=middle;whiteSpace=wrap;rounded=0;fontSize=10;fontColor=#00CC00;" vertex="1" parent="WIyWlLk6GJQsqaUBKTNV-1">
          <mxGeometry x="50" y="540" width="40" height="20" as="geometry" />
        </mxCell>
        <mxCell id="y3CnCQTeACcQArs1ATYj-31" value="成功" style="text;html=1;strokeColor=none;fillColor=none;align=center;verticalAlign=middle;whiteSpace=wrap;rounded=0;fontSize=10;fontColor=#00CC00;" vertex="1" parent="WIyWlLk6GJQsqaUBKTNV-1">
          <mxGeometry x="500" y="550" width="40" height="20" as="geometry" />
        </mxCell>
        <mxCell id="y3CnCQTeACcQArs1ATYj-32" style="edgeStyle=orthogonalEdgeStyle;rounded=0;orthogonalLoop=1;jettySize=auto;html=1;entryX=1;entryY=0.5;entryDx=0;entryDy=0;dashed=1;dashPattern=1 1;fontSize=10;fontColor=#00CC00;strokeColor=#FF3333;" edge="1" parent="WIyWlLk6GJQsqaUBKTNV-1">
          <mxGeometry relative="1" as="geometry">
            <mxPoint x="450" y="610" as="sourcePoint" />
            <mxPoint x="460" y="350" as="targetPoint" />
            <Array as="points">
              <mxPoint x="500" y="610" />
              <mxPoint x="500" y="350" />
            </Array>
          </mxGeometry>
        </mxCell>
        <mxCell id="y3CnCQTeACcQArs1ATYj-33" value="失敗" style="text;html=1;strokeColor=none;fillColor=none;align=center;verticalAlign=middle;whiteSpace=wrap;rounded=0;fontSize=10;fontColor=#FF3333;" vertex="1" parent="WIyWlLk6GJQsqaUBKTNV-1">
          <mxGeometry x="500" y="570" width="40" height="20" as="geometry" />
        </mxCell>
        <mxCell id="y3CnCQTeACcQArs1ATYj-35" style="edgeStyle=orthogonalEdgeStyle;rounded=0;orthogonalLoop=1;jettySize=auto;html=1;exitX=1;exitY=0.69;exitDx=0;exitDy=0;dashed=1;dashPattern=1 1;fontSize=10;fontColor=#00CC00;exitPerimeter=0;entryX=1;entryY=0.5;entryDx=0;entryDy=0;strokeColor=#00CC00;" edge="1" parent="WIyWlLk6GJQsqaUBKTNV-1" source="y3CnCQTeACcQArs1ATYj-23" target="y3CnCQTeACcQArs1ATYj-2">
          <mxGeometry relative="1" as="geometry">
            <mxPoint x="470" y="340" as="targetPoint" />
            <mxPoint x="670" y="480" as="sourcePoint" />
            <Array as="points">
              <mxPoint x="670" y="509" />
              <mxPoint x="670" y="510" />
              <mxPoint x="690" y="510" />
              <mxPoint x="690" y="340" />
            </Array>
          </mxGeometry>
        </mxCell>
        <mxCell id="y3CnCQTeACcQArs1ATYj-36" value="成功" style="text;html=1;strokeColor=none;fillColor=none;align=center;verticalAlign=middle;whiteSpace=wrap;rounded=0;fontSize=10;fontColor=#00CC00;" vertex="1" parent="WIyWlLk6GJQsqaUBKTNV-1">
          <mxGeometry x="690" y="460" width="40" height="20" as="geometry" />
        </mxCell>
        <mxCell id="y3CnCQTeACcQArs1ATYj-37" value="失敗" style="text;html=1;strokeColor=none;fillColor=none;align=center;verticalAlign=middle;whiteSpace=wrap;rounded=0;fontSize=10;fontColor=#FF3333;" vertex="1" parent="WIyWlLk6GJQsqaUBKTNV-1">
          <mxGeometry x="690" y="480" width="40" height="20" as="geometry" />
        </mxCell>
        <mxCell id="y3CnCQTeACcQArs1ATYj-39" value="失敗" style="text;html=1;strokeColor=none;fillColor=none;align=center;verticalAlign=middle;whiteSpace=wrap;rounded=0;fontSize=10;fontColor=#FF3333;" vertex="1" parent="WIyWlLk6GJQsqaUBKTNV-1">
          <mxGeometry x="280" y="150" width="40" height="20" as="geometry" />
        </mxCell>
        <mxCell id="y3CnCQTeACcQArs1ATYj-40" value="成功" style="text;html=1;strokeColor=none;fillColor=none;align=center;verticalAlign=middle;whiteSpace=wrap;rounded=0;fontSize=10;fontColor=#00CC00;" vertex="1" parent="WIyWlLk6GJQsqaUBKTNV-1">
          <mxGeometry x="400" y="270" width="40" height="20" as="geometry" />
        </mxCell>
        <mxCell id="y3CnCQTeACcQArs1ATYj-45" value="&lt;h1 style=&quot;line-height: 0% ; font-size: 31px&quot;&gt;&lt;font style=&quot;font-size: 26px&quot;&gt;1~3: 放在title.php內&lt;/font&gt;&lt;/h1&gt;" style="text;html=1;strokeColor=none;fillColor=none;align=center;verticalAlign=middle;whiteSpace=wrap;rounded=0;fontSize=31;labelBackgroundColor=#FF3399;fontColor=#FFFFFF;spacing=2;" vertex="1" parent="WIyWlLk6GJQsqaUBKTNV-1">
          <mxGeometry x="515" y="140" width="290" height="40" as="geometry" />
        </mxCell>
        <mxCell id="y3CnCQTeACcQArs1ATYj-46" value="" style="group" vertex="1" connectable="0" parent="WIyWlLk6GJQsqaUBKTNV-1">
          <mxGeometry x="590" y="220" width="140" height="40" as="geometry" />
        </mxCell>
        <mxCell id="y3CnCQTeACcQArs1ATYj-41" value="logout.php&lt;br&gt;登出" style="rounded=1;whiteSpace=wrap;html=1;fontSize=12;glass=0;strokeWidth=1;shadow=0;" vertex="1" parent="y3CnCQTeACcQArs1ATYj-46">
          <mxGeometry x="20" width="120" height="40" as="geometry" />
        </mxCell>
        <mxCell id="y3CnCQTeACcQArs1ATYj-42" value="&lt;h1 style=&quot;line-height: 0%; font-size: 31px;&quot;&gt;&lt;font style=&quot;font-size: 31px;&quot;&gt;3&lt;/font&gt;&lt;/h1&gt;" style="text;html=1;strokeColor=none;fillColor=none;align=center;verticalAlign=middle;whiteSpace=wrap;rounded=0;fontSize=31;labelBackgroundColor=#FF3399;fontColor=#FFFFFF;spacing=2;" vertex="1" parent="y3CnCQTeACcQArs1ATYj-46">
          <mxGeometry width="70" height="40" as="geometry" />
        </mxCell>
        <mxCell id="y3CnCQTeACcQArs1ATYj-47" value="" style="group" vertex="1" connectable="0" parent="WIyWlLk6GJQsqaUBKTNV-1">
          <mxGeometry x="320" y="320" width="140" height="40" as="geometry" />
        </mxCell>
        <mxCell id="y3CnCQTeACcQArs1ATYj-2" value="admin.php&lt;br&gt;管理頁面" style="rounded=1;whiteSpace=wrap;html=1;fontSize=12;glass=0;strokeWidth=1;shadow=0;" vertex="1" parent="y3CnCQTeACcQArs1ATYj-47">
          <mxGeometry x="20" width="120" height="40" as="geometry" />
        </mxCell>
        <mxCell id="y3CnCQTeACcQArs1ATYj-44" value="&lt;h1 style=&quot;line-height: 0% ; font-size: 31px&quot;&gt;&lt;font style=&quot;font-size: 31px&quot;&gt;1&lt;/font&gt;&lt;/h1&gt;" style="text;html=1;strokeColor=none;fillColor=none;align=center;verticalAlign=middle;whiteSpace=wrap;rounded=0;fontSize=31;labelBackgroundColor=#FF3399;fontColor=#FFFFFF;spacing=2;" vertex="1" parent="y3CnCQTeACcQArs1ATYj-47">
          <mxGeometry width="70" height="40" as="geometry" />
        </mxCell>
        <mxCell id="y3CnCQTeACcQArs1ATYj-48" value="" style="group" vertex="1" connectable="0" parent="WIyWlLk6GJQsqaUBKTNV-1">
          <mxGeometry x="130" y="440" width="130" height="40" as="geometry" />
        </mxCell>
        <mxCell id="y3CnCQTeACcQArs1ATYj-10" value="new.php&lt;br&gt;新增頁面" style="rounded=1;whiteSpace=wrap;html=1;fontSize=12;glass=0;strokeWidth=1;shadow=0;" vertex="1" parent="y3CnCQTeACcQArs1ATYj-48">
          <mxGeometry x="10" width="120" height="40" as="geometry" />
        </mxCell>
        <mxCell id="y3CnCQTeACcQArs1ATYj-43" value="&lt;h1 style=&quot;line-height: 0% ; font-size: 31px&quot;&gt;&lt;font style=&quot;font-size: 31px&quot;&gt;2&lt;/font&gt;&lt;/h1&gt;" style="text;html=1;strokeColor=none;fillColor=none;align=center;verticalAlign=middle;whiteSpace=wrap;rounded=0;fontSize=31;labelBackgroundColor=#FF3399;fontColor=#FFFFFF;spacing=2;" vertex="1" parent="y3CnCQTeACcQArs1ATYj-48">
          <mxGeometry width="70" height="40" as="geometry" />
        </mxCell>
      </root>
    </mxGraphModel>
  </diagram>
</mxfile>
